<?xml version="1.0" encoding="UTF-8"?>
<svg id="Camada_2" data-name="Camada 2" xmlns="http://www.w3.org/2000/svg" viewBox="0 0 528.68 206.31">
  <defs>
    <style>
      .cls-1 {
        font-family: Calibri-BoldItalic, Calibri;
        font-size: 109.08px;
        font-style: italic;
        font-weight: 700;
      }

      .cls-1, .cls-2 {
        fill: #4ab061;
      }

      .cls-3 {
        fill: #fff;
      }

      .cls-3, .cls-4, .cls-5 {
        fill-rule: evenodd;
      }

      .cls-4, .cls-6 {
        fill: #1f2b51;
      }

      .cls-5 {
        fill: #010101;
      }

      .cls-7 {
        fill: #d2e0d4;
      }
    </style>
  </defs>
  <g id="Camada_1-2" data-name="Camada 1">
    <g>
      <rect class="cls-7" width="528.68" height="206.31" rx="9.3" ry="9.3"/>
      <g>
        <path class="cls-3" d="m490.47,160.4h11.25c2.14,0,3.89,1.75,3.89,3.89v5.88c0,2.14-1.75,3.89-3.89,3.89h-11.76c-.6,0-1.18-.14-1.69-.39-.51.25-1.08.39-1.69.39h-11.76c-.55,0-1.07-.12-1.55-.32-.48.21-1,.32-1.55.32h-11.76c-.46,0-.9-.08-1.31-.23-.41.15-.85.23-1.31.23h-11.76c-2.14,0-3.89-1.75-3.89-3.89v-24.57c0-2.14,1.75-3.89,3.89-3.89h11.76c2.14,0,3.89,1.75,3.89,3.89v1.64h10.49c2.14,0,3.89,1.75,3.89,3.89v4.41h10.97c2.14,0,3.89,1.75,3.89,3.89v.95Z"/>
        <rect class="cls-6" x="445.56" y="145.61" width="11.76" height="24.57"/>
        <rect class="cls-6" x="459.95" y="151.15" width="11.76" height="19.03"/>
        <rect class="cls-6" x="474.81" y="159.45" width="11.76" height="10.73"/>
        <rect class="cls-6" x="489.95" y="164.29" width="11.76" height="5.88"/>
        <path class="cls-3" d="m443.53,100.47c.61-.54,1.41-.87,2.28-.87h25.9c1.9,0,3.45,1.55,3.45,3.45v11.76c0,1.9-1.55,3.45-3.45,3.45h-25.9c-.39,0-.77-.07-1.12-.19v8.41c.35-.12.73-.19,1.12-.19h11.27c1.9,0,3.44,1.55,3.44,3.45v11.76c0,1.9-1.55,3.45-3.44,3.45h-11.27c-.39,0-.77-.07-1.12-.19v25.41c0,1.9-1.55,3.44-3.44,3.44h-11.76c-1.9,0-3.44-1.55-3.44-3.44v-67.13c0-1.9,1.55-3.45,3.44-3.45h11.76c.87,0,1.67.33,2.28.87Z"/>
        <rect class="cls-2" x="429.48" y="103.05" width="11.76" height="67.13"/>
        <rect class="cls-2" x="445.81" y="129.74" width="11.27" height="11.76"/>
        <rect class="cls-2" x="445.81" y="103.05" width="25.9" height="11.76"/>
        <path class="cls-3" d="m478.28,177.73c.51-.62,1.28-1.02,2.15-1.02h1.43c.29,0,.56.04.82.12.64-.22,1.32-.32,2.02-.32.98,0,1.94.19,2.8.64.82-.41,1.74-.64,2.74-.64,1.56,0,3.03.47,4.14,1.61,1.14,1.16,1.54,2.72,1.54,4.31v6.43c0,1.53-1.25,2.77-2.77,2.77h-1.59c-.78,0-1.48-.32-1.99-.84-.5.52-1.21.84-1.99.84h-1.59c-.78,0-1.48-.32-1.99-.84-.5.52-1.21.84-1.99.84h-1.59c-.86,0-1.64-.4-2.15-1.02-.16.11-.33.21-.5.3-1.11.62-2.33.92-3.6.92-1.73,0-3.33-.51-4.63-1.6,0,0-.01.01-.02.02-1.24,1.07-2.76,1.58-4.4,1.58-1.87,0-3.58-.62-4.9-1.92-.2.2-.42.39-.66.57-1.27.95-2.78,1.35-4.35,1.35s-3-.39-4.23-1.24c-.51.63-1.29,1.04-2.16,1.04h-1.59c-.82,0-1.55-.36-2.06-.92-1.2.79-2.58,1.12-4.02,1.12-1.27,0-2.48-.26-3.54-.82-.33.27-.73.46-1.17.55-.58.12-1.17.2-1.76.2-.95,0-1.89-.17-2.73-.65-.81-.47-1.45-1.15-1.82-2.01-.39-.89-.42-2.02-.42-2.98v-3.14c-.71-.5-1.17-1.33-1.17-2.26v-1.23c0-.93.46-1.76,1.17-2.26v-.06c0-1,.49-1.86,1.34-2.38l1.59-.95c.88-.53,1.9-.54,2.79-.04.89.5,1.41,1.39,1.41,2.41v.77c.24.11.46.26.66.44,1.06-.61,2.27-.9,3.57-.9s2.38.28,3.4.83v-1.42c0-1.53,1.24-2.77,2.77-2.77h1.59c1.53,0,2.77,1.24,2.77,2.77v1.47c1.06-.59,2.25-.88,3.53-.88,1.91,0,3.64.67,4.97,2.03.42-.44.91-.81,1.46-1.11,1.11-.61,2.31-.91,3.57-.91,1.53,0,3.01.41,4.22,1.37.08.06.16.13.23.19,1.31-1.06,2.89-1.57,4.59-1.57,1.51,0,2.91.4,4.1,1.22Z"/>
        <path class="cls-5" d="m435.67,187.43l.22,1.41c-.45.09-.85.14-1.19.14-.58,0-1.03-.09-1.34-.27-.33-.18-.54-.43-.67-.72-.13-.31-.2-.92-.2-1.88v-5.4h-1.17v-1.23h1.17v-2.31l1.59-.96v3.27h1.59v1.23h-1.59v5.49c0,.45.04.74.09.87.05.14.14.23.27.33.13.07.31.11.54.11.16,0,.4-.02.69-.07h0Zm7.97-1.61l1.64.22c-.25.96-.74,1.7-1.43,2.22-.7.52-1.59.79-2.67.79-1.37,0-2.46-.42-3.25-1.26-.81-.85-1.21-2.02-1.21-3.54s.4-2.8,1.21-3.67c.81-.87,1.86-1.3,3.16-1.3s2.26.42,3.05,1.28c.79.85,1.19,2.04,1.19,3.59v.42h-6.99c.05,1.03.34,1.81.87,2.37.52.54,1.17.81,1.97.81.58,0,1.07-.16,1.48-.47.42-.31.74-.8.98-1.46h0Zm-5.2-2.55h5.22c-.07-.79-.27-1.37-.6-1.77-.51-.61-1.16-.92-1.97-.92-.72,0-1.34.23-1.82.72-.51.49-.78,1.16-.83,1.97h0Zm8.82,5.58v-12.93h1.59v12.93h-1.59Zm10.44-3.03l1.64.22c-.25.96-.74,1.7-1.43,2.22-.7.52-1.59.79-2.67.79-1.37,0-2.46-.42-3.25-1.26-.81-.85-1.21-2.02-1.21-3.54s.4-2.8,1.21-3.67c.81-.87,1.86-1.3,3.16-1.3s2.26.42,3.05,1.28c.8.85,1.19,2.04,1.19,3.59v.42h-6.99c.05,1.03.34,1.81.87,2.37.52.54,1.17.81,1.97.81.58,0,1.07-.16,1.48-.47.42-.31.74-.8.98-1.46h0Zm-5.2-2.55h5.22c-.07-.79-.27-1.37-.6-1.77-.51-.61-1.16-.92-1.97-.92-.72,0-1.34.23-1.82.72-.51.49-.78,1.16-.83,1.97h0Zm14.98,2.15l1.55.22c-.16,1.07-.6,1.9-1.3,2.51-.7.6-1.57.9-2.58.9-1.28,0-2.31-.42-3.09-1.26-.78-.83-1.17-2.02-1.17-3.6,0-1.01.16-1.88.51-2.64.33-.76.85-1.34,1.54-1.72.67-.38,1.43-.56,2.22-.56,1.01,0,1.86.25,2.49.78.65.51,1.07,1.25,1.25,2.19l-1.54.24c-.14-.63-.4-1.1-.78-1.43-.38-.31-.83-.47-1.35-.47-.81,0-1.46.29-1.95.85-.51.58-.76,1.48-.76,2.73s.23,2.17.72,2.75c.49.56,1.12.85,1.9.85.61,0,1.14-.2,1.55-.58.42-.38.69-.96.79-1.75h0Zm2.31-1.26c0-1.72.49-3,1.45-3.85.81-.69,1.79-1.03,2.94-1.03,1.3,0,2.35.42,3.16,1.26.81.83,1.23,2.01,1.23,3.49,0,1.21-.18,2.15-.54,2.84-.36.69-.89,1.23-1.57,1.61-.7.4-1.45.58-2.28.58-1.3,0-2.37-.42-3.18-1.26-.81-.83-1.21-2.04-1.21-3.63h0Zm1.63.02c0,1.19.27,2.1.79,2.67.52.6,1.17.9,1.97.9s1.45-.31,1.99-.9c.52-.6.78-1.5.78-2.73,0-1.16-.27-2.04-.79-2.64-.52-.6-1.17-.89-1.97-.89s-1.45.29-1.97.89c-.52.6-.79,1.48-.79,2.69h0Zm9.01,4.68v-9.38h1.43v1.32c.29-.45.69-.83,1.17-1.1.49-.27,1.05-.42,1.66-.42.69,0,1.26.14,1.7.43.45.29.76.69.94,1.21.76-1.1,1.72-1.64,2.91-1.64.94,0,1.66.25,2.15.78.51.51.76,1.3.76,2.37v6.43h-1.59v-5.91c0-.63-.05-1.08-.16-1.37-.09-.27-.29-.49-.56-.67-.27-.16-.58-.25-.96-.25-.65,0-1.21.22-1.64.65-.43.45-.65,1.14-.65,2.11v5.44h-1.59v-6.09c0-.7-.13-1.23-.38-1.59-.27-.34-.69-.52-1.28-.52-.43,0-.85.11-1.23.34-.38.23-.65.58-.83,1.05-.16.45-.25,1.1-.25,1.95v4.86h-1.59Z"/>
        <path class="cls-3" d="m243.45,109.9h-14.76c-1.05,0-1.91-.86-1.91-1.91v-10.93c0-1.05.86-1.91,1.91-1.91h45.78c1.05,0,1.91.86,1.91,1.91v10.93c0,1.05-.86,1.91-1.91,1.91h-14.69v56.01c0,1.05-.86,1.91-1.91,1.91h-12.52c-1.05,0-1.91-.86-1.91-1.91v-56.01h0Zm32.68,18.44c0-1.05-.86-1.91-1.91-1.91h-10.02c-1.05,0-1.91.86-1.91,1.91v20.93c0,5.19,1.43,10.07,5.31,13.67,3.96,3.68,9.21,4.88,14.48,4.88s10.46-1.24,14.4-4.92c3.88-3.62,5.33-8.49,5.33-13.69v-20.88c0-1.05-.86-1.91-1.91-1.91h-9.06c-1.05,0-1.91.86-1.91,1.91v20.88c0,1.8-.31,3.82-1.6,5.18-1.24,1.3-3.05,1.64-4.78,1.64s-3.62-.35-4.81-1.74c-1.33-1.54-1.61-4.01-1.61-5.97v-19.99h0Zm57.38,21.44l11.37,13.73c.48.58.58,1.34.26,2.03-.32.68-.97,1.1-1.73,1.1h-11.58c-.6,0-1.12-.25-1.49-.72l-9.38-11.81v10.63c0,1.05-.86,1.91-1.91,1.91h-9.84c-1.05,0-1.91-.86-1.91-1.91v-36.39c0-1.05.86-1.91,1.91-1.91h10.92c2.75,0,5.82.08,8.52.63,2.03.41,3.97,1.12,5.74,2.21,1.75,1.08,3.24,2.47,4.31,4.23,1.03,1.69,1.58,3.54,1.58,5.51,0,2.67-.79,5.1-2.45,7.2-1.18,1.5-2.67,2.66-4.32,3.56h0Zm-12.55-12.91v6.26h.23c1.51,0,3.52-.17,4.82-1.02.83-.54,1.16-1.23,1.16-2.22,0-.92-.22-1.65-1.03-2.13-1.26-.75-3.65-.88-5.18-.9h0Zm52.58,8.21c.93.54,1.79,1.21,2.55,2.02,1.84,1.96,2.72,4.35,2.72,7.04,0,4.18-1.87,7.44-5.47,9.56-4.1,2.42-9.71,2.94-14.38,2.94h-11.52c-1.05,0-1.91-.86-1.91-1.91v-36.39c0-1.05.86-1.91,1.91-1.91h13.13c4,0,8.72.47,12.21,2.6,3.13,1.92,4.71,4.86,4.71,8.52,0,2.26-.71,4.31-2.21,6-.52.58-1.1,1.09-1.73,1.53h0Zm-14.95-4.26h1.46c1.16,0,2.62-.14,3.62-.8.59-.39.83-.85.83-1.56,0-.61-.14-1.03-.67-1.35-1-.6-2.88-.69-4.01-.69h-1.22v4.41h0Zm0,15.42h2.31c1.2,0,2.65-.17,3.65-.91.69-.51.96-1.12.96-1.97,0-.79-.24-1.36-.89-1.82-.99-.7-2.55-.84-3.72-.84h-2.31v5.54h0Zm21.07-9.71c0-2.91.58-5.72,1.81-8.36,1.24-2.69,3.05-4.98,5.26-6.94,2.22-1.97,4.78-3.44,7.57-4.45,2.88-1.03,5.88-1.53,8.94-1.53s6.07.51,8.95,1.54c2.82,1.01,5.39,2.51,7.66,4.48,2.21,1.92,3.98,4.2,5.19,6.86,1.2,2.66,1.77,5.49,1.77,8.4,0,2.43-.38,4.81-1.23,7.09-.84,2.26-2.09,4.29-3.68,6.1-2.3,2.61-5.11,4.6-8.3,5.98-3.29,1.43-6.77,2.12-10.36,2.12-3.05,0-6.03-.51-8.9-1.54-2.81-1.01-5.36-2.51-7.6-4.48-2.21-1.94-4.02-4.24-5.26-6.91-1.22-2.63-1.81-5.44-1.81-8.34h0Zm14.26,0c0,2.58.83,4.77,2.67,6.59,1.85,1.82,4.05,2.65,6.64,2.65s4.81-.81,6.66-2.63c1.84-1.83,2.65-4.03,2.65-6.61s-.81-4.81-2.66-6.65c-1.85-1.83-4.06-2.65-6.66-2.65s-4.79.83-6.64,2.65c-1.85,1.83-2.67,4.05-2.67,6.64Z"/>
        <polygon class="cls-4" points="245.36 165.91 245.36 107.99 228.69 107.99 228.69 97.06 274.47 97.06 274.47 107.99 257.88 107.99 257.88 165.91 245.36 165.91"/>
        <path class="cls-4" d="m274.23,128.34v19.99c0,3.21.69,5.62,2.07,7.21,1.37,1.6,3.46,2.4,6.26,2.4s4.75-.75,6.16-2.24c1.42-1.48,2.13-3.65,2.13-6.49v-20.88h9.06v20.88c0,5.25-1.57,9.35-4.72,12.29-3.14,2.94-7.51,4.4-13.1,4.4s-10.04-1.46-13.18-4.37c-3.13-2.91-4.7-7.01-4.7-12.27v-20.93h10.02Zm46.5,6.63h-1.67v10.07h2.14c2.56,0,4.51-.45,5.86-1.33,1.35-.88,2.02-2.16,2.02-3.81,0-1.74-.65-2.99-1.96-3.77-1.31-.78-3.44-1.17-6.39-1.17h0Zm-11.51,29.76v-36.39h10.92c3.5,0,6.21.2,8.14.59,1.93.39,3.63,1.05,5.12,1.97,1.58.97,2.81,2.17,3.68,3.6.87,1.43,1.3,2.94,1.3,4.52,0,2.29-.68,4.3-2.04,6.02-1.36,1.72-3.32,3.07-5.88,4.04l12.96,15.64h-11.58l-11.34-14.29h-1.44v14.29h-9.84Zm47.47-6.58h4.22c2.02,0,3.62-.43,4.78-1.28,1.16-.86,1.74-2.02,1.74-3.51s-.57-2.58-1.7-3.37c-1.13-.8-2.74-1.19-4.82-1.19h-4.22v9.35h0Zm0-15.42h3.37c1.99,0,3.54-.38,4.67-1.12,1.12-.74,1.68-1.8,1.68-3.15s-.53-2.36-1.6-2.99c-1.06-.64-2.72-.96-4.99-.96h-3.13v8.22h0Zm-9.24,22v-36.39h13.13c4.95,0,8.68.77,11.21,2.32,2.53,1.55,3.8,3.85,3.8,6.9,0,1.86-.58,3.44-1.73,4.73-1.16,1.3-2.9,2.3-5.23,3.02,2.59.51,4.61,1.53,6.08,3.1,1.47,1.57,2.2,3.48,2.2,5.73,0,3.49-1.51,6.13-4.53,7.91-3.02,1.78-7.49,2.67-13.41,2.67h-11.52Zm44.57-18.19c0,3.16,1.08,5.82,3.24,7.95,2.16,2.13,4.82,3.2,7.98,3.2s5.85-1.06,8-3.19c2.15-2.13,3.22-4.79,3.22-7.97s-1.07-5.87-3.22-8c-2.15-2.13-4.82-3.2-8-3.2s-5.82,1.07-7.98,3.2c-2.16,2.13-3.24,4.8-3.24,8h0Zm-10.44,0c0-2.7.54-5.22,1.63-7.56,1.08-2.36,2.68-4.45,4.79-6.31,1.99-1.77,4.31-3.14,6.95-4.08,2.63-.95,5.4-1.42,8.29-1.42s5.66.48,8.31,1.43c2.65.95,5,2.33,7.05,4.12,2.07,1.79,3.64,3.86,4.7,6.21,1.07,2.35,1.6,4.89,1.6,7.61,0,2.28-.37,4.42-1.11,6.42-.75,2-1.85,3.84-3.32,5.5-2.07,2.36-4.61,4.19-7.63,5.49-3.02,1.31-6.22,1.96-9.6,1.96-2.87,0-5.62-.48-8.25-1.43-2.63-.95-4.96-2.33-6.99-4.12-2.11-1.85-3.71-3.95-4.79-6.29-1.09-2.33-1.63-4.85-1.63-7.54Z"/>
      </g>
      <text class="cls-1" transform="translate(15.23 90.78)"><tspan x="0" y="0">Dashboard</tspan></text>
    </g>
  </g>
</svg>